<?xml version="1.0" encoding="UTF-8"?>
<svg width="16px" height="16px" viewBox="0 0 16 16" version="1.1" xmlns="http://www.w3.org/2000/svg" xmlns:xlink="http://www.w3.org/1999/xlink">
    <!-- Generator: sketchtool 50.2 (55047) - http://www.bohemiancoding.com/sketch -->
    <title>81AF6A7A-549F-4445-9ED4-9188E1DDAA94</title>
    <desc>Created with sketchtool.</desc>
    <defs></defs>
    <g id="Schoolar" stroke="none" stroke-width="1" fill="none" fill-rule="evenodd">
        <g id="Users---Create-User" transform="translate(-655.000000, -1386.000000)" fill="#1A38DC">
            <path d="M665.615385,1388 C666.519231,1388 667.370154,1388.35092 668.009692,1388.99031 C668.649077,1389.62985 669,1390.48077 669,1391.38462 C669,1392.28846 668.649077,1393.13938 668.009692,1393.77892 L667.788462,1394 L663,1389.21154 L663.221077,1388.99031 C663.860615,1388.35092 664.711538,1388 665.615385,1388 M665.88,1386 C663.05744,1386 660.76,1388.29744 660.76,1391.12 C660.76,1391.74624 660.87376,1392.34496 661.08,1392.9 L655,1398.99008 L655,1400.91008 L660.94,1394.96 L661.4,1395.42 L655.32,1401.49008 L655.82992,1402 L658.00992,1402 L659.16,1400.85008 L659.16,1400.08 L659.92992,1400.08 L661.08,1398.93008 L661.08,1398.48 L661.53008,1398.48 L662.36,1397.65008 L662.36,1397.2 L662.81008,1397.2 L664.1,1395.91008 C664.65632,1396.11744 665.25248,1396.24 665.88,1396.24 C668.70256,1396.24 671,1393.94256 671,1391.12 C671,1388.29744 668.70256,1386 665.88,1386" id="icon-key"></path>
        </g>
    </g>
</svg>