<?xml version="1.0" encoding="UTF-8"?>
<svg width="17px" height="19px" viewBox="0 0 17 19" version="1.1" xmlns="http://www.w3.org/2000/svg" xmlns:xlink="http://www.w3.org/1999/xlink">
    <!-- Generator: sketchtool 50.2 (55047) - http://www.bohemiancoding.com/sketch -->
    <title>459AE0EE-8656-4D74-AF6A-6DA8285E3D31</title>
    <desc>Created with sketchtool.</desc>
    <defs></defs>
    <g id="Schoolar" stroke="none" stroke-width="1" fill="none" fill-rule="evenodd">
        <g id="Users---Create-User" transform="translate(-393.000000, -1459.000000)" fill="#1A38DC" fill-rule="nonzero">
            <g id="icon-add-user" transform="translate(392.000000, 1459.000000)">
                <circle id="Ellipse_13" cx="8.016" cy="3.88" r="3.88"></circle>
                <path d="M10.579,13.596 C10.5784694,12.968855 10.8271614,12.3672 11.2703386,11.9234601 C11.7135159,11.4797203 12.3148548,11.2302651 12.942,11.23 L14.542,11.23 C14.050026,9.54317438 13.0626987,8.04302214 11.708,6.924 C10.7990039,8.02506129 9.44579898,8.66267024 8.018,8.66267024 C6.59020102,8.66267024 5.23699614,8.02506129 4.328,6.924 C2.13405862,8.82488301 0.912503834,11.612496 1.002,14.514 C3.25063169,15.2203187 5.59613605,15.569563 7.953,15.549 C8.83051471,15.548391 9.70739094,15.5016599 10.58,15.409 L10.579,13.596 Z" id="Path_41"></path>
                <path d="M15.432,11.699 L13.109,11.699 C11.968532,11.699 11.044,12.623532 11.044,13.764 L11.044,16.087 C11.044,17.227468 11.968532,18.152 13.109,18.152 L15.432,18.152 C16.572468,18.152 17.497,17.227468 17.497,16.087 L17.497,13.764 C17.497,12.623532 16.572468,11.699 15.432,11.699 Z M15.969,15.588 L14.864,15.588 L14.864,16.655 C14.864,16.9985211 14.5855211,17.277 14.242,17.277 C13.8984789,17.277 13.62,16.9985211 13.62,16.655 L13.62,15.588 L12.545,15.588 C12.2014789,15.588 11.923,15.3095211 11.923,14.966 C11.923,14.6224789 12.2014789,14.344 12.545,14.344 L13.62,14.344 L13.62,13.234 C13.62,12.8904789 13.8984789,12.612 14.242,12.612 C14.5855211,12.612 14.864,12.8904789 14.864,13.234 L14.864,14.344 L15.964,14.344 C16.3075211,14.344 16.586,14.6224789 16.586,14.966 C16.586,15.3095211 16.3075211,15.588 15.964,15.588 L15.969,15.588 Z" id="Path_42"></path>
            </g>
        </g>
    </g>
</svg>