<?xml version="1.0" encoding="UTF-8"?>
<svg width="20px" height="20px" viewBox="0 0 20 20" version="1.1" xmlns="http://www.w3.org/2000/svg" xmlns:xlink="http://www.w3.org/1999/xlink">
    <!-- Generator: sketchtool 50.2 (55047) - http://www.bohemiancoding.com/sketch -->
    <title>666C6A14-0E8E-42E0-9A4F-024A4715547B</title>
    <desc>Created with sketchtool.</desc>
    <defs></defs>
    <g id="Schoolar" stroke="none" stroke-width="1" fill="none" fill-rule="evenodd">
        <g id="Users---Create-User" transform="translate(-687.000000, -3287.000000)" fill="#999999">
            <path d="M701.293882,3299.57862 L700.390509,3299.57862 L700.070326,3299.26987 C701.229789,3297.92518 701.867,3296.20836 701.865638,3294.43282 C701.865638,3290.32779 698.537851,3287 694.432819,3287 C690.327786,3287 687,3290.32779 687,3294.43282 C687,3298.53785 690.327786,3301.86564 694.432819,3301.86564 C696.273871,3301.86564 697.966266,3301.19097 699.269868,3300.07033 L699.578616,3300.39051 L699.578616,3301.29388 L705.296169,3307 L707,3305.29617 L701.293882,3299.57862 L701.293882,3299.57862 Z M694.432819,3299.57862 C691.585477,3299.57862 689.287021,3297.28016 689.287021,3294.43282 C689.287021,3291.58548 691.585477,3289.28702 694.432819,3289.28702 C697.28016,3289.28702 699.578616,3291.58548 699.578616,3294.43282 C699.578616,3297.28016 697.28016,3299.57862 694.432819,3299.57862 Z" id="user-search"></path>
        </g>
    </g>
</svg>